<svg version="1.1" xmlns="http://www.w3.org/2000/svg" viewBox="0 0 2524.7386079184535 1201.2131923525342" width="5049.477215836907" height="2402.4263847050684">
  <!-- svg-source:excalidraw -->
  
  <defs>
    <style class="style-fonts">
      @font-face {
        font-family: "Virgil";
        src: url("https://excalidraw.com/Virgil.woff2");
      }
      @font-face {
        font-family: "Cascadia";
        src: url("https://excalidraw.com/Cascadia.woff2");
      }
    </style>
    
  </defs>
  <g stroke-linecap="round" transform="translate(310.40412624624423 10) rotate(0 202.3841176563974 54.308434226906)"><path d="M126.61 4.58 C143.81 1.56, 168.17 -0.35, 189.03 -0.77 C209.88 -1.19, 231.78 0.52, 251.75 2.06 C271.72 3.6, 291.29 5.62, 308.85 8.46 C326.41 11.3, 343.72 14.87, 357.12 19.12 C370.51 23.37, 381.44 28.63, 389.24 33.95 C397.04 39.28, 402.32 45.6, 403.93 51.04 C405.54 56.49, 403.78 61.45, 398.9 66.62 C394.03 71.79, 385.63 77.18, 374.66 82.08 C363.69 86.97, 349.05 92.14, 333.1 95.96 C317.14 99.78, 298.45 102.99, 278.91 104.99 C259.38 107, 236.71 107.68, 215.89 107.99 C195.07 108.29, 174.07 108.11, 154.01 106.83 C133.96 105.56, 113.2 103.29, 95.54 100.33 C77.88 97.37, 61.55 93.26, 48.05 89.06 C34.55 84.86, 22.45 80.15, 14.55 75.12 C6.65 70.1, 2.26 64.63, 0.67 58.91 C-0.93 53.18, 0 46.3, 4.98 40.78 C9.97 35.26, 19.46 30.36, 30.58 25.78 C41.7 21.2, 53.14 17.22, 71.7 13.29 C90.27 9.36, 127.22 3.98, 141.98 2.18 C156.73 0.37, 159.21 1.54, 160.23 2.46 M124.73 2.9 C141.9 0.23, 166.04 1.64, 186.63 1.41 C207.23 1.19, 228.31 0.54, 248.29 1.54 C268.28 2.55, 288.64 4.75, 306.56 7.45 C324.48 10.15, 342.18 13.32, 355.82 17.76 C369.45 22.2, 380.15 28.7, 388.35 34.09 C396.55 39.49, 403.02 44.77, 405.04 50.14 C407.05 55.51, 405.24 61.03, 400.45 66.32 C395.65 71.61, 387.16 77.17, 376.24 81.88 C365.32 86.58, 350.82 90.75, 334.91 94.57 C319 98.39, 300.03 102.35, 280.78 104.78 C261.53 107.21, 240.31 108.67, 219.4 109.14 C198.48 109.61, 175.67 109.12, 155.29 107.58 C134.91 106.03, 114.78 102.86, 97.13 99.86 C79.47 96.85, 63.14 93.79, 49.37 89.55 C35.6 85.32, 22.77 79.47, 14.51 74.45 C6.26 69.44, 1.45 65.05, -0.15 59.46 C-1.74 53.87, 0.13 46.59, 4.95 40.92 C9.76 35.26, 18 29.9, 28.74 25.46 C39.49 21.03, 53.23 17.87, 69.4 14.31 C85.56 10.75, 116.4 5.45, 125.75 4.11 C135.1 2.78, 124.6 5.37, 125.49 6.31" stroke="none" stroke-width="0" fill="#ffffff"></path><path d="M186.06 -0.69 C205.3 -1.93, 228.29 -0.48, 248.41 0.93 C268.52 2.33, 288.67 4.8, 306.74 7.73 C324.81 10.66, 342.98 14.09, 356.83 18.51 C370.68 22.94, 382.07 29, 389.86 34.27 C397.66 39.54, 401.85 44.79, 403.58 50.13 C405.31 55.47, 404.93 60.98, 400.24 66.32 C395.54 71.67, 386.52 77.39, 375.41 82.21 C364.31 87.04, 349.39 91.46, 333.6 95.28 C317.82 99.1, 299.76 102.93, 280.68 105.13 C261.59 107.33, 239.86 108.15, 219.1 108.46 C198.35 108.76, 176.51 108.33, 156.12 106.96 C135.74 105.59, 114.8 103.13, 96.79 100.25 C78.78 97.37, 61.54 93.86, 48.04 89.66 C34.54 85.46, 23.61 80.24, 15.78 75.04 C7.95 69.84, 2.79 64.15, 1.08 58.48 C-0.63 52.82, 0.75 46.39, 5.51 41.04 C10.27 35.7, 18.77 30.99, 29.66 26.42 C40.55 21.84, 55.12 17.24, 70.84 13.61 C86.55 9.99, 101.26 7.07, 123.95 4.67 C146.63 2.27, 189.59 -0.2, 206.95 -0.81 C224.31 -1.43, 228.26 -0.22, 228.11 0.99 M202.25 0.43 C222.01 -0.47, 244.26 1.1, 263.79 2.91 C283.32 4.72, 302.43 7.93, 319.42 11.27 C336.41 14.62, 353.01 18.81, 365.74 22.98 C378.47 27.15, 389.2 31.3, 395.79 36.29 C402.38 41.27, 405.57 47.27, 405.28 52.88 C405 58.5, 400.61 64.46, 394.09 69.98 C387.57 75.49, 378.23 81.2, 366.16 85.98 C354.09 90.75, 338.45 95.51, 321.68 98.61 C304.9 101.71, 284.94 102.74, 265.53 104.57 C246.11 106.41, 225.95 109.19, 205.18 109.61 C184.41 110.03, 161.02 109.2, 140.89 107.1 C120.75 105.01, 101.18 100.64, 84.36 97.04 C67.53 93.45, 52.1 89.93, 39.92 85.53 C27.74 81.13, 17.8 75.92, 11.27 70.65 C4.74 65.37, 0.9 59.33, 0.75 53.87 C0.61 48.4, 4.1 43.04, 10.4 37.87 C16.7 32.7, 26.75 27.43, 38.58 22.85 C50.4 18.27, 64.68 13.74, 81.33 10.4 C97.97 7.05, 118.64 4.37, 138.44 2.77 C158.24 1.16, 189.9 0.95, 200.11 0.79 C210.32 0.64, 199.65 0.91, 199.68 1.83" stroke="#1e1e1e" stroke-width="4" fill="none"></path></g><g transform="translate(465.65957752834674 43.706572109437275) rotate(0 47.021484375 20.700000000000045)"><text x="47.021484375" y="0" font-family="Helvetica, Segoe UI Emoji" font-size="36px" fill="#1e1e1e" text-anchor="middle" style="white-space: pre;" direction="ltr" dominant-baseline="text-before-edge">старт</text></g><g stroke-linecap="round" transform="translate(218.7472652505494 209.59847589343826) rotate(0 264.5 50)"><path d="M26.21 0.19 L511.5 -0.44 L520.85 2.49 L524.04 4.91 L528.5 14.48 L530.3 25.93 L528.61 81.46 L527.9 84.9 L523.79 93.67 L513.67 97.53 L502.95 101.13 L18.33 98.61 L8.44 95.81 L4.35 95.44 L2.84 85.89 L-1.13 76.54 L-1.99 25.78 L-0.37 12.3 L6.52 8.21 L13.49 0.41 L26.6 -0.06" stroke="none" stroke-width="0" fill="#ffffff"></path><path d="M25 0 M25 0 C164.91 -0.02, 303.77 -0.36, 504 0 M25 0 C215.45 1, 404.92 0.95, 504 0 M504 0 C520.85 1.42, 530.8 9.58, 529 25 M504 0 C520.26 -1.67, 527.89 9, 529 25 M529 25 C527.41 42.16, 528.88 59.15, 529 75 M529 25 C528.89 44.33, 529.9 63.35, 529 75 M529 75 C528.49 93.03, 519.92 101.72, 504 100 M529 75 C527.88 92.24, 520.14 100.02, 504 100 M504 100 C369.98 101.77, 235.98 102.39, 25 100 M504 100 C375.23 98.86, 246.53 98.73, 25 100 M25 100 C8.55 99.08, -1.39 92.02, 0 75 M25 100 C9.89 98.39, -1.4 91.67, 0 75 M0 75 C-2.16 58.45, 0.15 47.25, 0 25 M0 75 C-0.31 56.04, -0.64 36.57, 0 25 M0 25 C-0.73 9.19, 9.55 -0.3, 25 0 M0 25 C-1.76 6.74, 7.37 -1.78, 25 0" stroke="#1e1e1e" stroke-width="4" fill="none"></path></g><g transform="translate(264.6369136880494 238.89847589343844) rotate(0 218.6103515625 20.700000000000045)"><text x="218.6103515625" y="0" font-family="Helvetica, Segoe UI Emoji" font-size="36px" fill="#1e1e1e" text-anchor="middle" style="white-space: pre;" direction="ltr" dominant-baseline="text-before-edge">usersWithSegment := []int{}</text></g><g transform="translate(901.9438519437454 183.25401124797827) rotate(0 421.875 64.79999999999995)"><text x="0" y="0" font-family="Cascadia, Segoe UI Emoji" font-size="36px" fill="#1e1e1e" text-anchor="start" style="white-space: pre;" direction="ltr" dominant-baseline="text-before-edge">из таблицы подписок выбрать </text><text x="0" y="43.199999999999996" font-family="Cascadia, Segoe UI Emoji" font-size="36px" fill="#1e1e1e" text-anchor="start" style="white-space: pre;" direction="ltr" dominant-baseline="text-before-edge">id пользователей у которых есть подписка</text><text x="0" y="86.39999999999999" font-family="Cascadia, Segoe UI Emoji" font-size="36px" fill="#1e1e1e" text-anchor="start" style="white-space: pre;" direction="ltr" dominant-baseline="text-before-edge">на сегмент.</text></g><g stroke-linecap="round"><g transform="translate(763.2386507068404 249.4464452856223) rotate(0 58.93912371753231 -0.3526747598211841)"><path d="M-0.95 0.35 C18.98 0.49, 98.93 0.64, 118.83 0.58 M0.75 -0.51 C20.57 -0.7, 98.35 -1.55, 117.79 -1.23" stroke="#868e96" stroke-width="4" fill="none"></path></g><g transform="translate(763.2386507068404 249.4464452856223) rotate(0 58.93912371753231 -0.3526747598211841)"><path d="M90.18 8.71 C97.32 5.84, 103.14 4.93, 117.69 0.57 M89.76 8.15 C95.29 6.23, 102.52 4.22, 118.42 -1.27" stroke="#868e96" stroke-width="4" fill="none"></path></g><g transform="translate(763.2386507068404 249.4464452856223) rotate(0 58.93912371753231 -0.3526747598211841)"><path d="M90.19 -11.81 C97.28 -9.78, 103.11 -5.8, 117.69 0.57 M89.78 -12.37 C95.43 -9.65, 102.66 -7.03, 118.42 -1.27" stroke="#868e96" stroke-width="4" fill="none"></path></g></g><mask></mask><g stroke-linecap="round"><g transform="translate(493.3304451260583 133.0280382953497) rotate(0 0.6299534962226971 29.76028981048057)"><path d="M1.16 -0.88 C1.15 8.89, 0.95 49.12, 0.68 59.28 M0.31 1.27 C0.13 11.13, 0.39 50.38, 0.1 60.4" stroke="#1e1e1e" stroke-width="4" fill="none"></path></g><g transform="translate(493.3304451260583 133.0280382953497) rotate(0 0.6299534962226971 29.76028981048057)"><path d="M-11.37 33.28 C-7.44 41.59, -2.45 52.03, 0.52 61.31 M-10.09 31.26 C-6.82 41.96, -3.22 50.81, -0.34 60.48" stroke="#1e1e1e" stroke-width="4" fill="none"></path></g><g transform="translate(493.3304451260583 133.0280382953497) rotate(0 0.6299534962226971 29.76028981048057)"><path d="M9.15 33.47 C5.61 41.91, 3.14 52.28, 0.52 61.31 M10.43 31.44 C6.93 42.29, 3.75 51.08, -0.34 60.48" stroke="#1e1e1e" stroke-width="4" fill="none"></path></g></g><mask></mask><g stroke-linecap="round" transform="translate(10 673.9926281517755) rotate(0 497.5 50)"><path d="M23.04 0.29 L974.9 0.92 L986.46 3.63 L990.63 6.98 L991.86 13.08 L994.72 25.26 L994.05 78.91 L992.74 85.93 L987.2 93.14 L981.64 99.37 L969.94 100.39 L18.49 97.88 L10.54 96.03 L6.26 93.08 L1.69 84.48 L-1.21 76.61 L1.54 25.18 L2.71 12.82 L5.14 4.68 L13.95 0.12 L23.4 0.44" stroke="none" stroke-width="0" fill="#ffffff"></path><path d="M25 0 M25 0 C363.01 -1.82, 700.69 -1.79, 970 0 M25 0 C402.79 3.06, 780.82 3.13, 970 0 M970 0 C985.12 1.03, 996.3 9.92, 995 25 M970 0 C984.48 1.39, 993.1 10.61, 995 25 M995 25 C995.08 39.21, 996.27 55.98, 995 75 M995 25 C994.33 42.69, 995.86 57.96, 995 75 M995 75 C993.72 93.08, 985.22 98.11, 970 100 M995 75 C995.8 91.86, 987.47 100.75, 970 100 M970 100 C617.66 96.8, 266.75 97.32, 25 100 M970 100 C667.37 101.34, 365.1 101.34, 25 100 M25 100 C8.47 99.24, -0.2 89.82, 0 75 M25 100 C9.18 98.23, 1.57 92.14, 0 75 M0 75 C-1.9 60.25, -1.91 46.2, 0 25 M0 75 C-1.4 56.75, -1.37 38.79, 0 25 M0 25 C-0.89 8.51, 9.08 -1.11, 25 0 M0 25 C0.18 9.29, 9.97 -0.44, 25 0" stroke="#1e1e1e" stroke-width="4" fill="none"></path></g><g transform="translate(33.8486328125 703.2926281517757) rotate(0 473.6513671875 20.700000000000045)"><text x="473.6513671875" y="0" font-family="Helvetica, Segoe UI Emoji" font-size="36px" fill="#1e1e1e" text-anchor="middle" style="white-space: pre;" direction="ltr" dominant-baseline="text-before-edge">res := users / usersWithSegment limit (count(res) * percent)</text></g><g stroke-linecap="round" transform="translate(113.58388100241973 918.8752026570241) rotate(0 377.5 50)"><path d="M24.48 0.28 L735.45 1.82 L743.3 2.44 L749.35 6.79 L753.43 12.07 L754.55 25.71 L752.94 80.19 L751.89 85.5 L747.22 95.57 L741.55 97.31 L730.17 99.58 L19.86 98.17 L9.3 96.36 L5.04 92.47 L0.55 87.05 L-1.81 76.58 L1.33 23.86 L1.17 15.61 L5.94 6.08 L13.17 0.72 L24.52 -0.08" stroke="none" stroke-width="0" fill="#ffffff"></path><path d="M25 0 M25 0 C167.84 -0.42, 312.3 -1.23, 730 0 M25 0 C192.31 -2.32, 358.89 -2.39, 730 0 M730 0 C745.8 1.48, 754.55 6.63, 755 25 M730 0 C747.21 -0.23, 754.77 6.24, 755 25 M755 25 C755.15 37.96, 755.66 50.94, 755 75 M755 25 C756.07 43.83, 755.18 61.81, 755 75 M755 75 C756.99 93.11, 747.45 100.41, 730 100 M755 75 C757.2 92.1, 744.74 99.46, 730 100 M730 100 C471.56 103.24, 213.6 102.23, 25 100 M730 100 C579.01 100.85, 428.19 100.56, 25 100 M25 100 C7.42 99.56, -1.74 89.75, 0 75 M25 100 C7.42 100.78, -1.47 91.32, 0 75 M0 75 C1.18 59.34, 1.13 42.43, 0 25 M0 75 C-0.64 55.85, 0.65 38.91, 0 25 M0 25 C-1.45 9.62, 8.73 -0.72, 25 0 M0 25 C-0.02 7.46, 9.23 2.11, 25 0" stroke="#1e1e1e" stroke-width="4" fill="none"></path></g><g transform="translate(132.05946693991973 948.1752026570243) rotate(0 359.0244140625 20.700000000000045)"><text x="359.0244140625" y="0" font-family="Helvetica, Segoe UI Emoji" font-size="36px" fill="#1e1e1e" text-anchor="middle" style="white-space: pre;" direction="ltr" dominant-baseline="text-before-edge">добавить массиву пользователей сегмент</text></g><g stroke-linecap="round" transform="translate(181.40344335248028 444.2146769149572) rotate(0 308.5 50)"><path d="M24.58 1.2 L596.17 -1.06 L606.98 1.86 L609.71 5.96 L616.76 12.96 L615.11 25.64 L616.88 80.28 L613.48 84.76 L609.46 94.57 L601.15 99.54 L590.9 98.36 L20.34 101.25 L11.05 96.11 L5.03 93.71 L0 84.49 L1.85 73.92 L1.1 26.44 L0.05 12.79 L6.42 7.16 L13.97 0.5 L25.7 1.93" stroke="none" stroke-width="0" fill="#ffffff"></path><path d="M25 0 M25 0 C152.41 0.84, 279.76 0.57, 592 0 M25 0 C144.84 -1.99, 264.8 -1.87, 592 0 M592 0 C610.56 0.98, 617.61 8.58, 617 25 M592 0 C609.77 0.41, 616.09 9.06, 617 25 M617 25 C616.47 41.11, 614.86 60.49, 617 75 M617 25 C617.03 41.54, 615.81 57.2, 617 75 M617 75 C616.44 90.23, 608.02 100.91, 592 100 M617 75 C615.85 91.35, 608.73 99.31, 592 100 M592 100 C416.23 99.44, 238.3 98.63, 25 100 M592 100 C424.55 101.83, 257.44 101.46, 25 100 M25 100 C9.51 99.7, -1.78 92.72, 0 75 M25 100 C7.92 97.84, -1.48 93.01, 0 75 M0 75 C1.05 56.81, -2.2 36.79, 0 25 M0 75 C0.16 59.09, 0.17 41.44, 0 25 M0 25 C-0.17 8.16, 8.68 -1.58, 25 0 M0 25 C-1.7 6.63, 7.65 -1.11, 25 0" stroke="#1e1e1e" stroke-width="4" fill="none"></path></g><g transform="translate(208.89953710248028 452.8146769149571) rotate(0 281.00390625 41.40000000000009)"><text x="281.00390625" y="0" font-family="Helvetica, Segoe UI Emoji" font-size="36px" fill="#1e1e1e" text-anchor="middle" style="white-space: pre;" direction="ltr" dominant-baseline="text-before-edge">users := все перемешанные id из </text><text x="281.00390625" y="41.4" font-family="Helvetica, Segoe UI Emoji" font-size="36px" fill="#1e1e1e" text-anchor="middle" style="white-space: pre;" direction="ltr" dominant-baseline="text-before-edge">таблицы 'users'</text></g><g transform="translate(941.605333788908 463.00991535477397) rotate(0 601.171875 21.59999999999991)"><text x="0" y="0" font-family="Cascadia, Segoe UI Emoji" font-size="36px" fill="#1e1e1e" text-anchor="start" style="white-space: pre;" direction="ltr" dominant-baseline="text-before-edge">Получение всех id из таблицы users, которые мы перемешали</text></g><g transform="translate(1101.4573579184535 609.5240150826658) rotate(0 706.640625 86.40000000000009)"><text x="0" y="0" font-family="Cascadia, Segoe UI Emoji" font-size="36px" fill="#1e1e1e" text-anchor="start" style="white-space: pre;" direction="ltr" dominant-baseline="text-before-edge">Применив разность множеств, между </text><text x="0" y="43.199999999999996" font-family="Cascadia, Segoe UI Emoji" font-size="36px" fill="#1e1e1e" text-anchor="start" style="white-space: pre;" direction="ltr" dominant-baseline="text-before-edge">всеми пользователями и теми у кого есть нужный нам сегмент</text><text x="0" y="86.39999999999999" font-family="Cascadia, Segoe UI Emoji" font-size="36px" fill="#1e1e1e" text-anchor="start" style="white-space: pre;" direction="ltr" dominant-baseline="text-before-edge">получаем множество пользователей у которых нет</text><text x="0" y="129.6" font-family="Cascadia, Segoe UI Emoji" font-size="36px" fill="#1e1e1e" text-anchor="start" style="white-space: pre;" direction="ltr" dominant-baseline="text-before-edge">нужного нам сегмента. Забираем только нужное нам к-во пользователей</text></g><g stroke-linecap="round"><g transform="translate(495.1440370789469 325.1509711487515) rotate(0 0.24961844097833819 53.5973152594504)"><path d="M-0.32 0.92 C-0.25 18.52, -0.39 88.03, -0.17 105.53 M1.71 0.36 C1.67 18.13, -1.05 89.02, -1.21 106.84" stroke="#1e1e1e" stroke-width="4" fill="none"></path></g><g transform="translate(495.1440370789469 325.1509711487515) rotate(0 0.24961844097833819 53.5973152594504)"><path d="M-9.23 78.11 C-9.14 87.14, -6.08 90.78, -2.31 107.97 M-9.78 78.16 C-7.63 84.65, -5.45 92.45, -1.71 107" stroke="#1e1e1e" stroke-width="4" fill="none"></path></g><g transform="translate(495.1440370789469 325.1509711487515) rotate(0 0.24961844097833819 53.5973152594504)"><path d="M11.29 78.63 C6.29 87.47, 4.26 90.98, -2.31 107.97 M10.74 78.67 C7.69 85.09, 4.68 92.75, -1.71 107" stroke="#1e1e1e" stroke-width="4" fill="none"></path></g></g><mask></mask><g stroke-linecap="round"><g transform="translate(493.3410056688999 561.4146963900412) rotate(0 -1.1194420203123627 50.777488971939874)"><path d="M0.04 -1.03 C-0.32 15.9, -2.09 83.92, -2.28 101.14 M-1.39 1.05 C-1.37 18.2, 0.08 86.01, 0.04 102.58" stroke="#1e1e1e" stroke-width="4" fill="none"></path></g><g transform="translate(493.3410056688999 561.4146963900412) rotate(0 -1.1194420203123627 50.777488971939874)"><path d="M-12.24 73.27 C-7.84 83.47, -2.8 89.03, 0.06 103.97 M-10.78 75.5 C-8.91 80.1, -5.86 86.89, -0.26 101.93" stroke="#1e1e1e" stroke-width="4" fill="none"></path></g><g transform="translate(493.3410056688999 561.4146963900412) rotate(0 -1.1194420203123627 50.777488971939874)"><path d="M8.28 73.04 C6.66 83.32, 5.68 88.94, 0.06 103.97 M9.74 75.27 C7.19 79.83, 5.81 86.67, -0.26 101.93" stroke="#1e1e1e" stroke-width="4" fill="none"></path></g></g><mask></mask><g stroke-linecap="round"><g transform="translate(494.520150323754 786.6326874079714) rotate(0 0.09926800738958264 58.64757300511337)"><path d="M0.25 -1.01 C0.39 18.69, 1.26 97.44, 1.28 117.19 M-1.08 1.08 C-1.16 21, -0.45 98.72, 0.18 118.3" stroke="#1e1e1e" stroke-width="4" fill="none"></path></g><g transform="translate(494.520150323754 786.6326874079714) rotate(0 0.09926800738958264 58.64757300511337)"><path d="M-12.29 89.81 C-8.57 97.74, -4.4 107.98, 0.66 117.61 M-10.43 89.98 C-7.32 97.16, -5.85 103.88, 0.08 119.1" stroke="#1e1e1e" stroke-width="4" fill="none"></path></g><g transform="translate(494.520150323754 786.6326874079714) rotate(0 0.09926800738958264 58.64757300511337)"><path d="M8.23 89.43 C5.06 97.52, 2.33 107.89, 0.66 117.61 M10.09 89.6 C8.07 96.93, 4.4 103.74, 0.08 119.1" stroke="#1e1e1e" stroke-width="4" fill="none"></path></g></g><mask></mask><g stroke-linecap="round"><g transform="translate(813.2576982529536 500.3582680213294) rotate(0 58.12192863872542 0.2154796733054809)"><path d="M-1.02 0.44 C18.55 0.56, 97.3 -0.38, 117.26 -0.44 M0.65 -0.37 C20.03 0.02, 96.41 0.56, 116.07 0.87" stroke="#868e96" stroke-width="4" fill="none"></path></g><g transform="translate(813.2576982529536 500.3582680213294) rotate(0 58.12192863872542 0.2154796733054809)"><path d="M88.5 10.03 C95.22 9.95, 104.2 6.06, 115.53 2.6 M88.1 11.55 C97.96 7.13, 106.39 4.6, 115.83 1.18" stroke="#868e96" stroke-width="4" fill="none"></path></g><g transform="translate(813.2576982529536 500.3582680213294) rotate(0 58.12192863872542 0.2154796733054809)"><path d="M88.73 -10.49 C95.19 -4.71, 104.1 -2.73, 115.53 2.6 M88.33 -8.97 C97.98 -6.72, 106.33 -2.58, 115.83 1.18" stroke="#868e96" stroke-width="4" fill="none"></path></g></g><mask></mask><g stroke-linecap="round"><g transform="translate(1021.3408633896952 693.8062992375089) rotate(0 34.447704757536485 -1.217634926610799)"><path d="M0.33 -0.79 C11.83 -1.59, 58.17 -3.59, 69.86 -3.85 M-0.96 1.41 C10.37 0.7, 57.32 -1.63, 69.2 -2.54" stroke="#868e96" stroke-width="4" fill="none"></path></g><g transform="translate(1021.3408633896952 693.8062992375089) rotate(0 34.447704757536485 -1.217634926610799)"><path d="M40.38 10.35 C50.95 6.88, 63.62 2.13, 69.65 -0.74 M42.23 10.13 C50.15 4.69, 59.81 2.26, 69.83 -2.35" stroke="#868e96" stroke-width="4" fill="none"></path></g><g transform="translate(1021.3408633896952 693.8062992375089) rotate(0 34.447704757536485 -1.217634926610799)"><path d="M39.12 -10.14 C50.32 -6.09, 63.45 -3.31, 69.65 -0.74 M40.97 -10.35 C49.27 -9.23, 59.33 -5.1, 69.83 -2.35" stroke="#868e96" stroke-width="4" fill="none"></path></g></g><mask></mask><g stroke-linecap="round" transform="translate(279.69995284225297 1084.4319540954834) rotate(0 212.43873856866503 53.39061912852526)"><path d="M222 -0.13 C242.74 -0.86, 265.64 0.34, 285.94 2.42 C306.23 4.5, 326.58 8.63, 343.79 12.35 C360.99 16.06, 377.04 20.21, 389.16 24.7 C401.28 29.18, 410.47 33.99, 416.51 39.26 C422.54 44.53, 426.2 50.96, 425.37 56.33 C424.54 61.71, 419.28 66.31, 411.53 71.51 C403.77 76.71, 392.43 83.28, 378.86 87.54 C365.29 91.8, 348.19 94.24, 330.12 97.07 C312.06 99.9, 291.52 102.9, 270.45 104.52 C249.38 106.14, 225.82 107.05, 203.72 106.79 C181.62 106.54, 158.31 104.94, 137.85 103.01 C117.39 101.08, 98.17 98.38, 80.98 95.19 C63.78 92.01, 46.8 88.3, 34.69 83.89 C22.58 79.48, 14.04 74.05, 8.32 68.74 C2.6 63.43, -0.42 57.62, 0.36 52.03 C1.15 46.44, 5.42 40.48, 13.04 35.19 C20.65 29.9, 32.29 24.73, 46.05 20.29 C59.82 15.85, 77.54 11.62, 95.62 8.55 C113.7 5.47, 132.34 3.37, 154.54 1.85 C176.74 0.32, 215.47 -0.43, 228.83 -0.6 C242.19 -0.78, 235.04 -0.22, 234.73 0.8 M115.46 5.99 C132.38 3.03, 157.58 2.64, 178.97 1.52 C200.35 0.4, 221.98 -1.25, 243.78 -0.74 C265.57 -0.24, 289.81 1.81, 309.73 4.58 C329.66 7.35, 347.99 11.83, 363.33 15.87 C378.68 19.9, 391.92 23.9, 401.8 28.79 C411.67 33.68, 419.01 39.59, 422.58 45.2 C426.16 50.82, 426.57 57.27, 423.24 62.48 C419.91 67.7, 412.59 71.58, 402.59 76.5 C392.59 81.42, 378.78 87.83, 363.23 92.02 C347.67 96.21, 328.89 99.44, 309.28 101.62 C289.67 103.8, 266.94 104.31, 245.56 105.1 C224.18 105.88, 202.67 107.24, 180.99 106.31 C159.32 105.39, 135.44 102.22, 115.52 99.52 C95.6 96.83, 76.65 93.73, 61.45 90.13 C46.24 86.53, 33.99 82.49, 24.31 77.92 C14.63 73.34, 6.97 68.1, 3.35 62.69 C-0.26 57.28, -0.61 51.23, 2.63 45.45 C5.88 39.67, 13.15 32.73, 22.81 27.99 C32.48 23.24, 45.08 20.71, 60.63 16.98 C76.17 13.25, 106.84 7.14, 116.08 5.63 C125.32 4.12, 114.41 7.1, 116.07 7.92" stroke="none" stroke-width="0" fill="#ffffff"></path><path d="M196.83 -0.39 C217.44 -1.67, 241 -0.84, 262.27 0.65 C283.55 2.14, 306 5.4, 324.48 8.53 C342.97 11.66, 359 15.45, 373.16 19.42 C387.32 23.39, 400.92 27.42, 409.43 32.35 C417.93 37.29, 422.54 43.32, 424.18 49.03 C425.82 54.73, 424.39 61.19, 419.28 66.58 C414.16 71.98, 405.15 76.84, 393.49 81.4 C381.84 85.95, 366.15 90.41, 349.36 93.93 C332.57 97.44, 312.75 100.47, 292.73 102.49 C272.71 104.52, 250.76 105.48, 229.23 106.07 C207.7 106.66, 184.8 107.24, 163.53 106.03 C142.27 104.83, 120.55 101.89, 101.62 98.82 C82.69 95.75, 64.27 91.93, 49.96 87.61 C35.65 83.29, 24.04 77.82, 15.78 72.9 C7.52 67.97, 2.07 63.23, 0.4 58.06 C-1.26 52.88, 0.5 47.2, 5.81 41.85 C11.11 36.49, 20.68 30.68, 32.26 25.93 C43.83 21.18, 58.7 17, 75.26 13.36 C91.81 9.71, 108 6.42, 131.59 4.08 C155.19 1.74, 199.37 -0.31, 216.81 -0.68 C234.25 -1.06, 236.3 0.91, 236.25 1.85 M141.18 2.04 C159.53 -0.55, 184.83 0.83, 206.83 0.99 C228.83 1.15, 252.11 1.78, 273.18 3 C294.25 4.23, 315.58 5.43, 333.27 8.35 C350.96 11.26, 366.24 15.98, 379.33 20.5 C392.43 25.03, 404.07 30.46, 411.84 35.51 C419.61 40.57, 425.05 45.12, 425.97 50.83 C426.88 56.54, 423.47 64.35, 417.35 69.77 C411.23 75.2, 401.65 79.03, 389.22 83.39 C376.8 87.75, 360.34 92.54, 342.8 95.93 C325.26 99.32, 304.54 102.12, 283.98 103.72 C263.42 105.33, 241.1 105.26, 219.43 105.58 C197.76 105.9, 175.13 107.13, 153.96 105.63 C132.8 104.14, 110.92 99.79, 92.43 96.62 C73.95 93.45, 56.24 91.02, 43.07 86.64 C29.89 82.25, 20.77 75.51, 13.38 70.33 C5.99 65.16, -0.45 61.04, -1.29 55.58 C-2.12 50.12, 2.07 43.09, 8.37 37.57 C14.68 32.04, 24.13 26.97, 36.54 22.44 C48.95 17.91, 65.32 13.42, 82.81 10.39 C100.3 7.36, 131.35 5.53, 141.46 4.28 C151.58 3.03, 142.48 2.42, 143.48 2.89" stroke="#1e1e1e" stroke-width="4" fill="none"></path></g><g transform="translate(441.75385003229894 1117.3697043864804) rotate(0 50.16796875 20.700000000000045)"><text x="50.16796875" y="0" font-family="Helvetica, Segoe UI Emoji" font-size="36px" fill="#1e1e1e" text-anchor="middle" style="white-space: pre;" direction="ltr" dominant-baseline="text-before-edge">конец</text></g><g stroke-linecap="round"><g transform="translate(495.66670589077603 1034.1686366910794) rotate(0 0.02375548379313841 19.0632255240248)"><path d="M-1.11 1.03 C-1.38 7.49, -1.17 31.6, -0.95 37.59 M0.51 0.53 C0.55 6.75, 1.42 29.58, 1.27 35.9" stroke="#1e1e1e" stroke-width="4" fill="none"></path></g><g transform="translate(495.66670589077603 1034.1686366910794) rotate(0 0.02375548379313841 19.0632255240248)"><path d="M-3.6 17.24 C-1.79 25.27, -0.38 30.71, 1.76 36.26 M-5.81 18.82 C-2.18 24.83, 0 30.69, 0.65 36.7" stroke="#1e1e1e" stroke-width="4" fill="none"></path></g><g transform="translate(495.66670589077603 1034.1686366910794) rotate(0 0.02375548379313841 19.0632255240248)"><path d="M8.97 17.12 C6.31 25.07, 3.23 30.56, 1.76 36.26 M6.76 18.7 C5.87 24.81, 3.52 30.71, 0.65 36.7" stroke="#1e1e1e" stroke-width="4" fill="none"></path></g></g><mask></mask></svg>